<svg width="20" height="20" viewBox="0 0 20 20" fill="none" xmlns="http://www.w3.org/2000/svg">
<g id="6590373a582e5f01dc6fe987_InstagramLogo.svg">
<path id="Vector" d="M9.73099 12.5397C11.2824 12.5397 12.5402 11.2819 12.5402 9.7305C12.5402 8.17908 11.2824 6.92139 9.73099 6.92139C8.17957 6.92139 6.92188 8.17908 6.92188 9.7305C6.92188 11.2819 8.17957 12.5397 9.73099 12.5397Z" stroke="white" stroke-width="1.74792" stroke-miterlimit="10"/>
<path id="Vector_2" d="M12.8206 3.26929H6.64051C4.77877 3.26929 3.26953 4.77853 3.26953 6.64027V12.8204C3.26953 14.6822 4.77877 16.1914 6.64051 16.1914H12.8206C14.6824 16.1914 16.1917 14.6822 16.1917 12.8204V6.64027C16.1917 4.77853 14.6824 3.26929 12.8206 3.26929Z" stroke="white" stroke-width="1.74792" stroke-linecap="round" stroke-linejoin="round"/>
<path id="Vector_3" d="M13.3818 6.92133C13.8472 6.92133 14.2245 6.54402 14.2245 6.07858C14.2245 5.61315 13.8472 5.23584 13.3818 5.23584C12.9164 5.23584 12.5391 5.61315 12.5391 6.07858C12.5391 6.54402 12.9164 6.92133 13.3818 6.92133Z" fill="white"/>
</g>
</svg>
