<svg width="20" height="20" viewBox="0 0 20 20" fill="none" xmlns="http://www.w3.org/2000/svg">
<g id="65903739560e9077a3b0b501_LinkedIn.svg">
<path id="Vector" d="M16.4722 16.4724H13.4758V11.416C13.4758 10.6229 12.586 9.9596 11.7929 9.9596C10.9999 9.9596 10.4794 10.6229 10.4794 11.416V16.4724H7.48293V7.48316H10.4794V8.98138C10.9755 8.17876 12.2446 7.66091 13.1199 7.66091C14.9713 7.66091 16.4722 9.19008 16.4722 11.0414V16.4724ZM5.98471 16.4724H2.98828V7.48316H5.98471V16.4724ZM4.4865 2.98853C5.31394 2.98853 5.98472 3.6593 5.98472 4.48673C5.98472 5.31418 5.31394 5.98495 4.4865 5.98495C3.65906 5.98495 2.98828 5.31418 2.98828 4.48673C2.98828 3.6593 3.65906 2.98853 4.4865 2.98853Z" fill="white"/>
</g>
</svg>
