<svg xmlns="http://www.w3.org/2000/svg" width="139" height="34" viewBox="0 0 139 34" fill="none">
  <path d="M0 33.8274V6.38184H4.11132C5.50013 6.38184 6.71258 6.62433 7.72663 7.12033C8.74068 7.61633 9.52327 8.37687 10.0744 9.42399C10.6255 10.4711 10.9011 11.8158 10.9011 13.4692C10.9011 14.7919 10.7247 15.9382 10.383 16.9192C10.0413 17.9001 9.37998 18.7048 8.39899 19.322C9.391 19.8731 10.1074 20.7329 10.5483 21.9233C10.9892 23.1137 11.1987 24.4805 11.1987 26.0346C11.1987 27.5887 10.9562 28.9114 10.4602 30.0798C9.96416 31.2481 9.24771 32.163 8.29979 32.8133C7.35187 33.4636 6.17249 33.7943 4.78368 33.7943H0V33.8274ZM4.03416 17.6907C5.16946 17.6907 5.95204 17.3821 6.38191 16.7538C6.81178 16.1366 7.0212 15.2107 7.0212 13.9872C7.0212 12.7637 6.80076 11.8489 6.35987 11.2537C5.91897 10.6585 5.14741 10.3719 4.03416 10.3719V17.6907ZM4.03416 29.8263C5.25764 29.8263 6.05124 29.4625 6.43702 28.7351C6.8228 28.0076 7.0212 26.9605 7.0212 25.6047C7.0212 24.249 6.8228 23.1798 6.43702 22.4634C6.05124 21.7469 5.24661 21.3942 4.03416 21.3942V29.8263Z" fill="white"/>
  <path d="M13.5911 33.8274V6.38184H17.6253C20.0391 6.38184 21.8137 7.0542 22.9601 8.38789C24.1064 9.72159 24.6795 11.6946 24.6795 14.2958C24.6795 15.839 24.404 17.1727 23.8639 18.2969C23.3238 19.4212 22.6625 20.2479 21.8909 20.7659L24.6354 33.8163H20.6013L18.3197 22.2429H17.6142V33.8163H13.5801L13.5911 33.8274ZM17.6253 18.5174C18.3748 18.5174 18.959 18.3521 19.3999 18.0214C19.8407 17.6907 20.1494 17.2168 20.3367 16.6105C20.5241 16.0043 20.6123 15.2768 20.6123 14.4502C20.6123 13.1385 20.4029 12.1355 19.973 11.43C19.5431 10.7246 18.7606 10.3719 17.6253 10.3719V18.5064V18.5174Z" fill="white"/>
  <path d="M26.0794 33.8276L30.2238 6.39307H35.1507L39.2951 33.8276H35.3712L34.6217 28.2282H30.7418L29.9923 33.8276H26.0684H26.0794ZM31.304 23.9626H34.0705L32.9132 14.7369L32.803 13.282H32.5825L32.4723 14.7369L31.315 23.9626H31.304Z" fill="white"/>
  <path d="M41.4434 33.8274V6.38184H45.213L48.9495 20.6778L49.2802 21.9453H49.5007V6.38184H53.1931V33.8163H49.7983L45.6869 19.5204L45.3563 18.2529H45.1358V33.8163H41.4434V33.8274Z" fill="white"/>
  <path d="M56.1797 33.8274V6.38184H60.291C61.5806 6.38184 62.6828 6.59126 63.5756 7.02113C64.4685 7.43998 65.1959 8.16745 65.736 9.1815C66.2871 10.2066 66.6839 11.6064 66.9264 13.381C67.1689 15.1556 67.2902 17.4041 67.2902 20.1156C67.2902 22.8271 67.1689 25.0867 66.9264 26.8613C66.6839 28.6359 66.2871 30.0247 65.736 31.0387C65.1849 32.0528 64.4685 32.7692 63.5756 33.1881C62.6828 33.6069 61.5806 33.8163 60.291 33.8163H56.1797V33.8274ZM60.2138 29.7932C61.2059 29.7932 61.9113 29.3964 62.3191 28.6138C62.7269 27.8312 62.9804 26.707 63.0686 25.252C63.1568 23.7971 63.2009 22.0666 63.2009 20.0605C63.2009 18.0545 63.1568 16.3019 63.0686 14.858C62.9804 13.4251 62.7269 12.3229 62.3081 11.5513C61.8892 10.7908 61.1948 10.405 60.2028 10.405V29.7822L60.2138 29.7932Z" fill="white"/>
  <path d="M70.0684 33.8274V6.38184H74.1797C75.5685 6.38184 76.7809 6.62433 77.795 7.12033C78.809 7.61633 79.5916 8.37687 80.1427 9.42399C80.6939 10.4711 80.9694 11.8158 80.9694 13.4692C80.9694 14.7919 80.7931 15.9382 80.4514 16.9192C80.1097 17.9001 79.4483 18.7048 78.4674 19.322C79.4594 19.8731 80.1758 20.7329 80.6167 21.9233C81.0576 23.1137 81.267 24.4805 81.267 26.0346C81.267 27.5887 81.0245 28.9114 80.5285 30.0798C80.0325 31.2481 79.3161 32.163 78.3681 32.8133C77.4202 33.4636 76.2409 33.7943 74.852 33.7943H70.0684V33.8274ZM74.1025 17.6907C75.2378 17.6907 76.0204 17.3821 76.4503 16.7538C76.8801 16.1366 77.0896 15.2107 77.0896 13.9872C77.0896 12.7637 76.8691 11.8489 76.4282 11.2537C75.9873 10.6585 75.2158 10.3719 74.1025 10.3719V17.6907ZM74.1025 29.8263C75.326 29.8263 76.1196 29.4625 76.5054 28.7351C76.8912 28.0076 77.0896 26.9605 77.0896 25.6047C77.0896 24.249 76.8912 23.1798 76.5054 22.4634C76.1196 21.7469 75.315 21.3942 74.1025 21.3942V29.8263Z" fill="white"/>
  <path d="M83.6595 33.8274V6.38184H87.6936C90.1075 6.38184 91.8821 7.0542 93.0284 8.38789C94.1747 9.72159 94.7479 11.6946 94.7479 14.2958C94.7479 15.839 94.4723 17.1727 93.9322 18.2969C93.3922 19.4212 92.7308 20.2479 91.9593 20.7659L94.7038 33.8163H90.6696L88.388 22.2429H87.6826V33.8163H83.6484L83.6595 33.8274ZM87.6936 18.5174C88.4431 18.5174 89.0273 18.3521 89.4682 18.0214C89.9091 17.6907 90.2177 17.2168 90.4051 16.6105C90.5925 16.0043 90.6807 15.2768 90.6807 14.4502C90.6807 13.1385 90.4712 12.1355 90.0414 11.43C89.6115 10.7246 88.8289 10.3719 87.6936 10.3719V18.5064V18.5174Z" fill="white"/>
  <path d="M96.9844 33.8274V6.38184H101.019V33.8163H96.9844V33.8274Z" fill="white"/>
  <path d="M129.732 33.8274V6.38184H138.947V10.5262H133.756V17.7348H137.492V22.1327H133.756V29.683H138.947V33.8274H129.732Z" fill="white"/>
  <path d="M130.967 4.87186L132.973 0H136.599L134.67 4.87186H130.967Z" fill="white"/>
  <path d="M125.224 28.7018C124.442 28.1727 123.803 27.5445 123.284 26.828C124.332 24.9652 125.048 23.1245 125.379 22.1656C127.23 16.8969 128.09 10.3056 124.982 7.60512C123.417 6.24938 120.826 5.98484 118.964 6.98787C113.585 9.89776 116.847 21.4932 116.991 21.9782C117.399 23.4001 117.884 25.0755 118.666 26.7178C118.468 27.0705 118.071 27.6437 117.377 28.0735C116.175 28.812 114.577 28.812 113.375 28.0735C112.681 27.6437 112.284 27.0815 112.086 26.7178C112.868 25.0755 113.353 23.4111 113.761 21.9782C113.904 21.4822 117.178 9.89776 111.788 6.98787C109.925 5.97382 107.335 6.24938 105.77 7.60512C102.651 10.3166 103.521 16.8969 105.373 22.1656C105.704 23.1245 106.42 24.9652 107.467 26.828C106.938 27.5334 106.31 28.1727 105.517 28.7018C104.954 29.0766 104.337 29.3852 103.676 29.6167V33.717C105.131 33.3642 106.486 32.7911 107.71 31.9754C108.526 31.4243 109.231 30.8071 109.837 30.1457C110.267 30.6528 110.939 31.3031 111.909 31.8101C114.037 32.9344 116.704 32.9344 118.831 31.8101C119.801 31.292 120.474 30.6417 120.904 30.1457C121.51 30.8071 122.204 31.4243 123.031 31.9754C124.243 32.7911 125.599 33.3753 127.054 33.717V29.6167C126.404 29.3852 125.787 29.0876 125.224 28.7128V28.7018ZM109.981 20.898C109.859 21.3279 109.727 21.7688 109.595 22.2097C109.418 21.7798 109.242 21.3279 109.088 20.8649C107.192 15.475 107.456 11.3527 108.36 10.5701C108.559 10.3938 108.911 10.3056 109.264 10.3056C109.507 10.3056 109.749 10.3497 109.925 10.4489C110.388 10.7024 110.95 11.8377 110.962 14.2185C110.984 16.5773 110.466 19.2116 109.981 20.898ZM121.664 20.8649C121.499 21.3279 121.334 21.7798 121.157 22.2097C121.025 21.7688 120.893 21.3279 120.771 20.887C120.286 19.2116 119.779 16.5773 119.79 14.2075C119.812 11.8267 120.364 10.6914 120.838 10.4379C121.014 10.3387 121.256 10.2946 121.499 10.2946C121.852 10.2946 122.204 10.3938 122.403 10.5591C123.307 11.3417 123.56 15.464 121.664 20.8539V20.8649Z" fill="white"/>
</svg>