<svg xmlns="http://www.w3.org/2000/svg" width="58" height="58" viewBox="0 0 58 58" fill="none">
<g clip-path="url(#clip0_873_1857)">
<path d="M30.3065 22.1982L28.8001 10.4478L27.2936 22.1982L20.8424 12.2732L24.582 23.5097L14.4532 17.3598L22.6945 25.8668L10.9086 24.7148L22.0299 28.8L10.9086 32.8763L22.6945 31.742L14.4532 40.2491L24.582 34.0903L20.8424 45.3356L27.2936 35.4018L28.8001 47.1522L30.3065 35.4018L36.7577 45.3268L33.0182 34.0903L43.1469 40.2402L34.9057 31.7332L46.6915 32.8852L35.5703 28.8L46.6915 24.7237L34.9057 25.858L43.1469 17.3509L33.0182 23.5097L36.7666 12.2644L30.3065 22.1982ZM41.2948 2.85342L35.4285 20.4879L51.3084 10.8465L38.3794 24.192L56.8823 22.3931L39.4251 28.8L56.8823 35.2069L38.3705 33.408L51.3084 46.7535L35.4196 37.1121L41.286 54.7466L31.1661 39.168L28.8001 57.6L26.434 39.168L16.3053 54.7377L22.1716 37.1033L6.29175 46.7535L19.2296 33.408L0.726707 35.2069L18.1839 28.8L0.708984 22.3931L19.2296 24.192L6.29175 10.8465L22.1716 20.4879L16.3053 2.85342L26.434 18.432L28.8001 0L31.1661 18.432L41.2948 2.86228V2.85342Z" fill="black"/>
</g>
<defs>
<clipPath id="clip0_873_1857">
<rect width="57.6" height="57.6" fill="white"/>
</clipPath>
</defs>
</svg>